<svg width="177" height="56" viewBox="0 0 177 56" fill="none" xmlns="http://www.w3.org/2000/svg">
<g id="idurar-app-ai-no-code-logo 1">
<g id="Group">
<path id="Vector" d="M52.6953 4.51733H0.113182V27.3389H52.6953V4.51733Z" fill="white"/>
<g id="Group_2">
<path id="Vector_2" d="M0.113182 51.4314V10.607C0.113182 7.25817 2.84841 4.51733 6.19184 4.51733H46.6191C49.9613 4.51733 52.6953 7.25817 52.6953 10.607V51.1038C52.6953 51.2049 52.6928 51.3056 52.6878 51.4056L44.2927 43.0886C43.6097 42.4116 42.4703 42.0714 41.7639 42.336C41.054 42.5989 39.9702 42.21 39.3591 41.4736L29.438 29.5384C28.8288 28.8001 27.8169 28.7983 27.2022 29.5312L18.9059 39.4013C18.2876 40.1359 17.1374 40.2853 16.3501 39.738L14.3533 38.3408C13.5662 37.788 12.4195 37.9429 11.8012 38.6811L10.6492 40.0585C10.0344 40.793 9.14663 41.398 8.68295 41.3961C8.21741 41.3944 7.32239 41.9921 6.6987 42.7213L0.113182 51.4314Z" fill="#0050C8"/>
<path id="Vector_3" d="M29.4738 32.0891C28.8591 31.3473 27.8599 31.349 27.2469 32.0909L20.8845 39.7986C20.2717 40.5387 20.3777 40.6466 21.1236 40.0381L23.0629 38.4537C23.8051 37.8451 24.8368 37.4292 25.3544 37.5318C25.8684 37.629 26.5981 37.4166 26.9756 37.0529C27.3494 36.6874 28.3577 36.7396 29.2168 37.1682L31.6216 38.3744C32.4771 38.8066 33.0163 38.5923 32.8114 37.9027C32.6119 37.2131 32.6119 36.6316 32.8132 36.6118C33.0181 36.592 32.682 35.9672 32.0709 35.2308L29.4738 32.0891Z" fill="#EEEEEF"/>
<path id="Vector_4" d="M38.6111 43.6084C38.0359 42.9278 37.8347 42.854 38.1689 43.4428C38.505 44.0315 38.6147 46.3811 39.2743 46.5017C39.9321 46.626 40.7625 46.9771 41.1165 47.2814C41.4723 47.5838 42.0475 47.6936 42.4052 47.5208C42.7575 47.3498 43.8017 47.438 44.7183 47.717L45.9836 48.106C46.902 48.3814 47.0908 48.0627 46.4042 47.3912L44.224 45.2577C43.5357 44.5824 42.3872 44.208 41.6683 44.4204C40.9494 44.6347 40.2035 44.8165 40.0094 44.8255C39.8189 44.8346 39.1862 44.2872 38.6111 43.6084Z" fill="#EEEEEF"/>
<path id="Vector_5" d="M14.8953 40.6774C14.1098 40.1193 12.9632 40.2633 12.3377 40.9962L11.5828 41.8783C10.9628 42.6094 9.98505 43.2071 9.41894 43.2053C8.85096 43.2053 7.86967 43.7959 7.23701 44.5178L6.11189 45.8016C5.47567 46.5236 5.64456 46.727 6.47677 46.2534L6.75707 46.095C7.59283 45.6251 8.55804 45.2507 8.90311 45.2722C9.24453 45.2921 10.1126 44.7807 10.8226 44.138L10.9233 44.0461C11.6368 43.4016 12.4437 43.0523 12.7169 43.2611C12.9901 43.4771 13.4861 43.3601 13.8187 43.0037C14.1566 42.6508 15.1253 42.4023 15.9755 42.4545C16.8273 42.5031 16.8831 42.0908 16.1013 41.5344L14.8953 40.6774Z" fill="#EEEEEF"/>
</g>
<g id="Group_3">
<g id="Group_4">
<path id="Vector_6" d="M68.1201 37.9051H64.4652V23.2573H68.1201V37.9051ZM68.1201 20.9265H64.4652V17.9321H68.1201V20.9265Z" fill="#0A143C"/>
<path id="Vector_7" d="M79.3802 34.5788C83.5033 34.5788 85.5628 32.2367 85.5628 27.3764C85.5628 23.2381 83.5033 21.2591 79.3802 21.2591H75.4356V34.5788H79.3802ZM71.7787 37.9051V17.9315H79.3802C85.9576 17.9315 89.2483 21.1067 89.2483 27.3764C89.2483 34.3721 85.9576 37.9051 79.3802 37.9051H71.7787Z" fill="#0A143C"/>
<path id="Vector_8" d="M92.055 30.0581V17.9313H95.7145V30.0581C95.7145 33.2301 97.4567 34.8157 100.699 34.8157C103.942 34.8157 105.686 33.2301 105.686 30.0581V17.9313H109.342V30.0581C109.342 35.3635 106.397 38.0175 100.699 38.0175C95.0018 38.0175 92.055 35.3635 92.055 30.0581Z" fill="#0A143C"/>
<path id="Vector_9" d="M113 37.9053V17.9317H122.102C126.162 17.9317 128.189 19.7325 128.189 23.2847C128.189 25.6877 126.61 27.7032 123.45 29.2816L129.745 37.9053H125.107L118.985 29.2101V27.5238C122.64 26.9217 124.302 25.5738 124.302 23.439C124.302 21.972 123.515 21.2587 121.866 21.2587H116.989V37.9053H113Z" fill="#0A143C"/>
<path id="Vector_10" d="M133.241 37.9053H129.462L137.899 17.9317H141.859L150.474 37.9053H146.514L144.248 32.5788H137.649L138.912 29.2518H142.914L139.787 21.7911L133.241 37.9053Z" fill="#0A143C"/>
<path id="Vector_11" d="M152.561 37.9053V17.9317H161.658C165.715 17.9317 167.74 19.7325 167.74 23.2847C167.74 25.6877 166.162 27.7032 163.002 29.2816L169.298 37.9053H164.655L158.543 29.2101V27.5238C162.2 26.9217 163.858 25.5738 163.858 23.439C163.858 21.972 163.068 21.2587 161.418 21.2587H156.55V37.9053H152.561Z" fill="#0A143C"/>
</g>
</g>
</g>
</g>
</svg>
